# xmcd CD database file
#
# Track frame offsets:
#	150
#	17004
#	31924
#	49981
#	65529
#	83158
#	98581
#	114764
#	136067
#	154259
#	171100
#	187958
#	203729
#	225622
#	245103
#
# Disc length: 3645 seconds
#
# Revision: 0
# Processed by: cddbd v1.5.2PL0 Copyright (c) Steve Scherf et al.
# Submitted via: CDex 1.51
#
DISCID=ba0e3b0f
DTITLE=Southpaw - Buffalo Mansions
DYEAR=2005
DGENRE=Country
TTITLE0=Carry My Head
TTITLE1=Bright Lights
TTITLE2=St. Peter's Waltz
TTITLE3=For The Angels
TTITLE4=Shut Your Mouth
TTITLE5=Sent You Up
TTITLE6=Diamonds
TTITLE7=Crazy Eyes
TTITLE8=Far, Wide and Near
TTITLE9=Such A Shame
TTITLE10=Come On Board
TTITLE11=Wearing Pink
TTITLE12=River
TTITLE13=Underwater Jesus
TTITLE14=Reaction
EXTD=YEAR: 2005
EXTT0=
EXTT1=
EXTT2=
EXTT3=
EXTT4=
EXTT5=
EXTT6=
EXTT7=
EXTT8=
EXTT9=
EXTT10=
EXTT11=
EXTT12=
EXTT13=
EXTT14=
PLAYORDER=
